# xmcd CD database file
#
# Track frame offsets:
#	150
#	16645
#	37670
#	52447
#	71462
#	97270
#	113110
#	126992
#	144582
#	163797
#	177505
#	199015
#	217309
#	232150
#	259375
#
# Disc length: 3634 seconds
#
# Revision: 0
# Processed by: cddbd v1.5.2PL0 Copyright (c) Steve Scherf et al.
# Submitted via: CDex 1.51
#
DISCID=ea0e300f
DTITLE=Vince Halfhide and Larry The Bird - Kitchen Music
DYEAR=1996
DGENRE=Blues
TTITLE0=I Can't Be Satisfied
TTITLE1=Travelling Riverside Blues
TTITLE2=Hesitation Blues
TTITLE3=Rowdy Blues
TTITLE4=Death Don't Have No Mercy
TTITLE5=From Four Til Late
TTITLE6=River of Jordan
TTITLE7=Death Letter Blues
TTITLE8=Corrinna
TTITLE9=Shake Sugaree
TTITLE10=Travelling Shoes
TTITLE11=You Got To Move
TTITLE12=Good Morning Little Schoolgirl
TTITLE13=Chick-a-Dee
TTITLE14=I'm Satisfied
EXTD=YEAR: 1996
EXTT0=
EXTT1=
EXTT2=
EXTT3=
EXTT4=
EXTT5=
EXTT6=
EXTT7=
EXTT8=
EXTT9=
EXTT10=
EXTT11=
EXTT12=
EXTT13=
EXTT14=
PLAYORDER=
